<svg width="18" height="19" viewBox="0 0 18 19" fill="none" xmlns="http://www.w3.org/2000/svg">
<path d="M15.3045 7.03613H2.69547C2.07248 7.03613 1.60114 7.59961 1.7112 8.2128L3.08299 15.8557C3.16852 16.3322 3.58312 16.679 4.06726 16.679H13.9327C14.4169 16.679 14.8315 16.3322 14.917 15.8557L16.2888 8.2128C16.3989 7.59961 15.9275 7.03613 15.3045 7.03613Z" stroke="#232323" stroke-width="1.8" stroke-linejoin="round"/>
<path d="M12.2142 5.96387C12.2142 5.11139 11.8756 4.29382 11.2728 3.69102C10.67 3.08823 9.85241 2.74958 8.99993 2.74958C8.14745 2.74958 7.32988 3.08823 6.72709 3.69102C6.12429 4.29382 5.78564 5.11139 5.78564 5.96387" stroke="#232323" stroke-width="1.8" stroke-linecap="square" stroke-linejoin="round"/>
</svg>
