<svg width="182" height="31" viewBox="0 0 182 31" fill="none" xmlns="http://www.w3.org/2000/svg">
<path d="M22.384 1.03645V6.85488H14.3158V29.9223H8.02678V6.85488H0V1.03645H22.384Z" fill="#232323"/>
<path d="M22.7861 21.2565V15.4381H36.3158V21.2565H22.7861Z" fill="#232323"/>
<path d="M51.7578 30.5C48.3926 30.5 45.6756 29.6197 43.6068 27.859C41.5657 26.0708 40.5451 23.6362 40.5451 20.555H46.8755C46.8755 21.2428 46.9996 21.8618 47.2479 22.412C47.5237 22.9347 47.8823 23.3611 48.3236 23.6912C48.7925 24.0213 49.3166 24.2689 49.8959 24.434C50.4751 24.599 51.082 24.6816 51.7164 24.6816C52.9852 24.6816 54.0748 24.379 54.985 23.7737C55.9229 23.1685 56.3918 22.3432 56.3918 21.2978C56.3918 20.8576 56.2814 20.4725 56.0608 20.1424C55.8401 19.7847 55.5781 19.5096 55.2746 19.3171C54.9988 19.097 54.5575 18.8769 53.9506 18.6568C53.3714 18.4367 52.8749 18.2717 52.4611 18.1616C52.0474 18.0516 51.4268 17.9003 50.5993 17.7077C49.9372 17.5426 49.4407 17.4188 49.1097 17.3363C48.7787 17.2538 48.2822 17.1162 47.6202 16.9237C46.9858 16.7311 46.4893 16.566 46.1307 16.4285C45.7997 16.2634 45.3584 16.0433 44.8067 15.7682C44.2551 15.4931 43.8275 15.218 43.5241 14.9429C43.2207 14.6678 42.8759 14.3239 42.4897 13.9113C42.1311 13.4986 41.8553 13.0722 41.6622 12.632C41.4691 12.1644 41.3036 11.6417 41.1657 11.064C41.0278 10.4587 40.9588 9.826 40.9588 9.16575C40.9588 6.41472 41.8967 4.28267 43.7723 2.7696C45.648 1.25653 48.2133 0.5 51.4681 0.5C54.7506 0.5 57.302 1.32531 59.1225 2.97593C60.9706 4.62655 61.8947 6.89615 61.8947 9.78473H55.6884C55.6884 8.60179 55.2608 7.7077 54.4058 7.10248C53.5783 6.46974 52.5439 6.15337 51.3026 6.15337C50.1993 6.15337 49.2339 6.38721 48.4064 6.85488C47.6064 7.32256 47.2065 7.99656 47.2065 8.87689C47.2065 9.28955 47.303 9.66094 47.4961 9.99106C47.7168 10.2937 47.965 10.555 48.2409 10.7751C48.5167 10.9677 48.9442 11.174 49.5235 11.3941C50.1027 11.5867 50.5855 11.738 50.9716 11.848C51.3854 11.9305 51.9922 12.0681 52.7921 12.2607C53.6748 12.4807 54.3368 12.6596 54.7781 12.7971C55.2195 12.9072 55.8539 13.1135 56.6814 13.4161C57.5089 13.6912 58.1433 13.9663 58.5847 14.2414C59.0536 14.5165 59.5915 14.8879 60.1983 15.3556C60.8051 15.7957 61.2603 16.2909 61.5637 16.8411C61.8947 17.3638 62.1705 18.0103 62.3912 18.7806C62.6394 19.5234 62.7635 20.3349 62.7635 21.2153C62.7635 23.2235 62.2533 24.9429 61.2327 26.3735C60.2121 27.804 58.8881 28.8494 57.2607 29.5096C55.6608 30.1699 53.8265 30.5 51.7578 30.5Z" fill="#232323"/>
<path d="M84.9464 1.03645H91.1941V29.9223H84.9464V17.9966H74.0648V29.9223H67.7757V1.03645H74.0648V12.1781H84.9464V1.03645Z" fill="#232323"/>
<path d="M97.8374 29.9223V1.03645H104.126V29.9223H97.8374Z" fill="#232323"/>
<path d="M126.656 29.9223L121.029 20.0598H117.016V29.9223H110.727V1.03645H122.436C124.339 1.03645 126.063 1.44911 127.608 2.27442C129.152 3.07222 130.352 4.20014 131.207 5.65819C132.09 7.11623 132.531 8.76685 132.531 10.61C132.531 12.4532 132.063 14.1176 131.125 15.6032C130.187 17.0887 128.904 18.2166 127.277 18.9869L133.69 29.9223H126.656ZM117.016 6.81362V14.2827H122.022C123.291 14.2827 124.298 13.9388 125.043 13.251C125.815 12.5633 126.201 11.6692 126.201 10.5688C126.201 9.826 126.036 9.17951 125.705 8.6293C125.374 8.05158 124.891 7.61142 124.256 7.3088C123.622 6.97868 122.877 6.81362 122.022 6.81362H117.016Z" fill="#232323"/>
<path d="M157.5 1.03645V6.85488H149.432V29.9223H143.143V6.85488H135.116V1.03645H157.5Z" fill="#232323"/>
<path d="M170.994 30.5C167.629 30.5 164.912 29.6197 162.843 27.859C160.802 26.0708 159.782 23.6362 159.782 20.555H166.112C166.112 21.2428 166.236 21.8618 166.484 22.412C166.76 22.9347 167.119 23.3611 167.56 23.6912C168.029 24.0213 168.553 24.2689 169.132 24.434C169.712 24.599 170.318 24.6816 170.953 24.6816C172.222 24.6816 173.311 24.379 174.221 23.7737C175.159 23.1685 175.628 22.3432 175.628 21.2978C175.628 20.8576 175.518 20.4725 175.297 20.1424C175.077 19.7847 174.815 19.5096 174.511 19.3171C174.235 19.097 173.794 18.8769 173.187 18.6568C172.608 18.4367 172.111 18.2717 171.698 18.1616C171.284 18.0516 170.663 17.9003 169.836 17.7077C169.174 17.5426 168.677 17.4188 168.346 17.3363C168.015 17.2538 167.519 17.1162 166.857 16.9237C166.222 16.7311 165.726 16.566 165.367 16.4285C165.036 16.2634 164.595 16.0433 164.043 15.7682C163.492 15.4931 163.064 15.218 162.761 14.9429C162.457 14.6678 162.112 14.3239 161.726 13.9113C161.368 13.4986 161.092 13.0722 160.899 12.632C160.706 12.1644 160.54 11.6417 160.402 11.064C160.264 10.4587 160.195 9.826 160.195 9.16575C160.195 6.41472 161.133 4.28267 163.009 2.7696C164.884 1.25653 167.45 0.5 170.705 0.5C173.987 0.5 176.538 1.32531 178.359 2.97593C180.207 4.62655 181.131 6.89615 181.131 9.78473H174.925C174.925 8.60179 174.497 7.7077 173.642 7.10248C172.815 6.46974 171.78 6.15337 170.539 6.15337C169.436 6.15337 168.47 6.38721 167.643 6.85488C166.843 7.32256 166.443 7.99656 166.443 8.87689C166.443 9.28955 166.539 9.66094 166.733 9.99106C166.953 10.2937 167.201 10.555 167.477 10.7751C167.753 10.9677 168.181 11.174 168.76 11.3941C169.339 11.5867 169.822 11.738 170.208 11.848C170.622 11.9305 171.229 12.0681 172.029 12.2607C172.911 12.4807 173.573 12.6596 174.015 12.7971C174.456 12.9072 175.09 13.1135 175.918 13.4161C176.745 13.6912 177.38 13.9663 177.821 14.2414C178.29 14.5165 178.828 14.8879 179.435 15.3556C180.042 15.7957 180.497 16.2909 180.8 16.8411C181.131 17.3638 181.407 18.0103 181.628 18.7806C181.876 19.5234 182 20.3349 182 21.2153C182 23.2235 181.49 24.9429 180.469 26.3735C179.449 27.804 178.125 28.8494 176.497 29.5096C174.897 30.1699 173.063 30.5 170.994 30.5Z" fill="#232323"/>
</svg>
